<svg width="18" height="18" viewBox="0 0 18 18" fill="none" xmlns="http://www.w3.org/2000/svg">
<path fill-rule="evenodd" clip-rule="evenodd" d="M13.7954 7.10975L10.4369 3.75129C10.3544 3.66435 10.3392 3.63198 10.3106 3.57106C10.2002 3.33497 10.2205 3.08366 10.4369 2.85392L12.3402 0.950671C12.4665 0.831361 12.6289 0.764725 12.8072 0.764725C12.9691 0.774244 13.1201 0.839611 13.2375 0.950671L17.0453 4.75781C17.1272 4.84476 17.143 4.87712 17.1716 4.93805C17.2814 5.17476 17.2611 5.42544 17.0453 5.65518L15.1414 7.55843L6.37972 16.3201C6.2217 16.4648 6.16395 16.4699 6.03512 16.4972L1.47087 17.2543C1.06344 17.3025 0.68964 16.956 0.74168 16.5245L1.49816 11.9602C1.52418 11.8377 1.5356 11.7686 1.67522 11.6156L8.53302 4.75781C8.74054 4.56806 8.74753 4.55537 9.05278 4.57567C9.53066 4.6512 9.77689 5.27631 9.43039 5.65518L2.71665 12.3689L2.1385 15.8568L5.62642 15.2787L13.7954 7.10975ZM11.783 3.30261L14.6927 6.21238L15.6993 5.2065L12.7888 2.29672C12.4538 2.6318 12.118 2.96752 11.783 3.30261Z" fill="white"/>
</svg>
