<svg width="64" height="48" viewBox="0 0 64 48" fill="none" xmlns="http://www.w3.org/2000/svg">
<g clip-path="url(#clip0_1923_366)">
<path d="M56 0H8C5.87827 0 3.84344 0.842855 2.34314 2.34315C0.842853 3.84344 -1.66291e-06 5.87827 -1.66291e-06 8V40C-0.00519383 40.9022 0.157578 41.7974 0.479998 42.64C1.11187 44.4346 2.35894 45.9474 4 46.91C5.2162 47.6142 6.59468 47.9898 8 48H56C57.3344 47.9938 58.6465 47.6573 59.8191 47.0203C60.9918 46.3834 61.9884 45.466 62.72 44.35C63.5481 43.0496 63.9918 41.5416 64 40V8C64 5.87827 63.1571 3.84344 61.6569 2.34315C60.1566 0.842855 58.1217 0 56 0V0ZM33 42.67H8C7.71593 42.6673 7.43472 42.6131 7.17 42.51L21.65 22.75L33.52 34.61L37.28 38.37L41.55 42.67H33ZM58.67 40C58.6674 40.7073 58.3852 41.3849 57.8851 41.8851C57.3849 42.3852 56.7073 42.6674 56 42.67H49.12L41.12 34.61L47.94 27.87L58.72 39.87L58.67 40ZM58.67 31.87L50 22.21C49.7583 21.9462 49.467 21.7327 49.1427 21.5817C48.8183 21.4307 48.4674 21.3452 48.11 21.33C47.7481 21.3128 47.3867 21.3735 47.0502 21.5081C46.7138 21.6427 46.4102 21.8479 46.16 22.11L37.34 30.85L23.23 16.77C22.9491 16.5049 22.6171 16.2999 22.2544 16.1675C21.8916 16.0351 21.5056 15.9781 21.12 16C20.7369 16.0357 20.3656 16.1512 20.0298 16.3389C19.694 16.5266 19.4011 16.7824 19.17 17.09L5.33 36V8C5.33263 7.29268 5.61478 6.61509 6.11493 6.11494C6.61509 5.61478 7.29268 5.33263 8 5.33H56C56.7073 5.33263 57.3849 5.61478 57.8851 6.11494C58.3852 6.61509 58.6674 7.29268 58.67 8V31.87Z" fill="#646DF6"/>
<path d="M37.33 24C40.2737 24 42.66 21.6137 42.66 18.67C42.66 15.7263 40.2737 13.34 37.33 13.34C34.3863 13.34 32 15.7263 32 18.67C32 21.6137 34.3863 24 37.33 24Z" fill="#646DF6"/>
</g>
<defs>
<clipPath id="clip0_1923_366">
<rect width="64" height="48" fill="white"/>
</clipPath>
</defs>
</svg>
